<?xml version="1.0" encoding="utf-8"?>
<svg
	version="1.1"
	xmlns="http://www.w3.org/2000/svg"
	xmlns:xlink="http://www.w3.org/1999/xlink"
	x="0%" y="0%"
	width="100%" height="100%"
	viewBox="0 0 24.0 24.0"
	enable-background="new 0 0 24.0 24.0"
	xml:space="preserve">
	<path
		fill="#FFFFFF"
		stroke="#FFFFFF"
		fill-opacity="1.000"
		stroke-opacity="1.000"
		fill-rule="nonzero"
		stroke-width="0.0"
		stroke-linejoin="round"
		stroke-linecap="round"
		d="M19.87,8.36C19.55,13.02,16.80,17.19,9.06,16.76L9.12,22.21C9.12,23.72,4.13,24.28,4.13,21.92Q4.13,11.21,4.20,5.90C4.20,0.27,5.29,0.49,9.14,0.49C16.80,0.49,19.87,4.03,19.87,8.36zM8.64,13.91C14.91,14.26,16.46,11.06,17.04,8.94A0.72 0.72 18.10 0 0 15.66,8.49C14.88,11.58,12.48,12.68,8.71,12.46A0.72 0.72 272.66 0 0 8.64,13.91zM12.01,5.17L12.01,8.38A0.72 0.72 -0.00 0 0 13.46,8.38L13.46,5.17A0.72 0.72 -0.00 0 0 12.01,5.17zM8.44,5.17L8.44,8.38A0.72 0.72 -0.00 0 0 9.89,8.38L9.89,5.17A0.72 0.72 -0.00 0 0 8.44,5.17z"/>
</svg>
